<svg width="377" height="427" viewBox="0 0 377 427" fill="none" xmlns="http://www.w3.org/2000/svg">
<g clip-path="url(#clip0_179_229)">
<mask id="path-1-inside-1_179_229" fill="white">
<path d="M0 20C0 8.9543 8.95431 0 20 0H357C368.046 0 377 8.9543 377 20V407C377 418.046 368.046 427 357 427H20C8.95431 427 0 418.046 0 407V20Z"/>
</mask>
<path d="M0 20C0 8.9543 8.95431 0 20 0H357C368.046 0 377 8.9543 377 20V407C377 418.046 368.046 427 357 427H20C8.95431 427 0 418.046 0 407V20Z" fill="#EDFFCE"/>
<line x1="12.4598" y1="8.80358" x2="56.4598" y2="111.804" stroke="black"/>
<line x1="363.459" y1="11.1975" x2="320.459" y2="111.198" stroke="black"/>
<line x1="363.727" y1="427.419" x2="320.727" y2="399.419" stroke="black"/>
<line x1="11.731" y1="428.579" x2="58.731" y2="398.579" stroke="black"/>
</g>
<path d="M-15 20C-15 0.670034 0.670034 -15 20 -15H357C376.33 -15 392 0.670034 392 20H362C362 17.2386 359.761 15 357 15H20C17.2386 15 15 17.2386 15 20H-15ZM377 427H0H377ZM20 427C0.670034 427 -15 411.33 -15 392V20C-15 0.670034 0.670034 -15 20 -15V15C17.2386 15 15 17.2386 15 20V407C15 418.046 17.2386 427 20 427ZM357 -15C376.33 -15 392 0.670034 392 20V392C392 411.33 376.33 427 357 427C359.761 427 362 418.046 362 407V20C362 17.2386 359.761 15 357 15V-15Z" fill="#EBB8D5" mask="url(#path-1-inside-1_179_229)"/>
<rect x="56.5" y="111.5" width="264" height="288" fill="#EDFFCE"/>
<rect x="56.5" y="111.5" width="264" height="288" stroke="black"/>
<defs>
<clipPath id="clip0_179_229">
<path d="M0 20C0 8.9543 8.95431 0 20 0H357C368.046 0 377 8.9543 377 20V407C377 418.046 368.046 427 357 427H20C8.95431 427 0 418.046 0 407V20Z" fill="white"/>
</clipPath>
</defs>
</svg>
